<svg id="Layer_1" data-name="Layer 1" xmlns="http://www.w3.org/2000/svg" xmlns:xlink="http://www.w3.org/1999/xlink" viewBox="0 0 2000 2000"><defs><style>.cls-1{fill:#fff;}.cls-2{fill:url(#linear-gradient);}.cls-3{fill:url(#linear-gradient-2);}.cls-4{fill:url(#linear-gradient-3);}.cls-5{fill:url(#linear-gradient-4);}</style><linearGradient id="linear-gradient" x1="1626.38" y1="1214.97" x2="320.1" y2="898.09" gradientUnits="userSpaceOnUse"><stop offset="0" stop-color="#4a67fb"/><stop offset="1" stop-color="#24d8ed"/></linearGradient><linearGradient id="linear-gradient-2" x1="1660.06" y1="1076.12" x2="353.78" y2="759.25" xlink:href="#linear-gradient"/><linearGradient id="linear-gradient-3" x1="1728.44" y1="794.25" x2="422.15" y2="477.38" xlink:href="#linear-gradient"/><linearGradient id="linear-gradient-4" x1="1687.01" y1="965.02" x2="380.73" y2="648.15" xlink:href="#linear-gradient"/></defs><rect x="-0.98" width="1999.11" height="1999.11"/><path class="cls-1" d="M585.56,1528.92a51.53,51.53,0,0,0-18.92-14.39q-11.22-5-25.95-5a64.84,64.84,0,0,0-49.05,21.61,74,74,0,0,0-14.4,24.27,92.51,92.51,0,0,0,0,61.1,76.26,76.26,0,0,0,14.22,24.12,64.5,64.5,0,0,0,21.27,15.89,61.41,61.41,0,0,0,26.28,5.69q16.08,0,28.46-6.69a56.58,56.58,0,0,0,20.43-18.74l43.52,32.47a90.48,90.48,0,0,1-38.17,31.14,118.18,118.18,0,0,1-47.53,10q-27.81,0-51.24-8.71A117.18,117.18,0,0,1,454,1676.77a113.07,113.07,0,0,1-26.62-39.37q-9.54-23.09-9.55-51.56t9.55-51.56A113.22,113.22,0,0,1,454,1494.94a117.7,117.7,0,0,1,40.51-25q23.43-8.68,51.24-8.7a128.34,128.34,0,0,1,20.92,1.83,115.71,115.71,0,0,1,21.43,5.86,96.86,96.86,0,0,1,20.25,10.72,80.64,80.64,0,0,1,17.42,16.42Z"/><path class="cls-1" d="M911,1467.32h78.35a223.27,223.27,0,0,1,54.08,6.37q25.62,6.33,44.7,20.57a101.07,101.07,0,0,1,30.29,37q11.22,22.79,11.22,55.26,0,28.79-10.88,50.73a109.28,109.28,0,0,1-29.29,36.83,129.71,129.71,0,0,1-42.53,22.61,165.27,165.27,0,0,1-50.56,7.69H911Zm52.23,188.85h27.13a145.79,145.79,0,0,0,33.65-3.7,71.66,71.66,0,0,0,27-12.2,58.75,58.75,0,0,0,17.91-22.44c4.35-9.28,6.53-20.59,6.53-34q0-17.4-6.53-30.28a60.43,60.43,0,0,0-17.58-21.28,77.23,77.23,0,0,0-25.94-12.55,115,115,0,0,0-31.31-4.18H963.23Z"/><path class="cls-1" d="M1418.26,1467.32h159v48.22H1470.49v48.22h98.77V1612h-98.77v92.41h-52.23Z"/><path class="cls-2" d="M1100.15,1129.6a86.73,86.73,0,0,1-118.7,30.66l-104.58-61.44.85-1.51c29.59-52.86,58.51-102.67,85.67-148.45l.27-.24,105.83,62.28A86.62,86.62,0,0,1,1100.15,1129.6Z"/><path class="cls-3" d="M728.47,810.47l36,21.23L672.22,978.26l-36-21.23-32.28-19-3.75-2.26L357,792.81c-41-24.33-55-77.42-30.66-118.7A86.71,86.71,0,0,1,445,643.45L692.44,789.24l11,6.51Z"/><path class="cls-4" d="M964.71,554.62,860,691.76l-36-21.23-17-10.17L787.74,649l-54.29-32a85.42,85.42,0,0,1,3.44-149.41,84.47,84.47,0,0,1,44.36-9.8,83.41,83.41,0,0,1,38.84,11.84l71.81,42.19,19.27,11.33,17,9.92Z"/><path class="cls-1" d="M1402,1107.77a15.45,15.45,0,0,0-.69,3.32c-2.27,8.9-4.27,17.57-6.26,26-.65,2.55-1.31,5.35-2,7.9-3.89,15.27-7.52,30.29-11.09,44.29q-2.43,9.55-4.83,18.32-6.24,23.27-11.52,42.73c-1.91,6.86-3.8,13.47-5.43,19.83-1.88,6.35-3.46,11.94-5,17.53-.92,2.79-1.58,5.59-2.49,8.12-1.88,6.35-3.46,11.94-5,17a45.63,45.63,0,0,1-6.52,11.26,21.83,21.83,0,0,1-15.35,7.45,7.76,7.76,0,0,1-2.33.14,22.71,22.71,0,0,1-21.45-23.82l.07-1.29a20.28,20.28,0,0,1,.86-6.66c4.58-18.33,9.15-36.66,13.46-55,3-12.23,5.94-24.71,8.66-37.2,1.3-5.09,2.58-9.93,3.62-15a24,24,0,0,1,1-4.08c4.06-18.35,7.84-36.47,11.64-54.84,3.07-14.28,6.16-28.82,8.71-43.13.66-2.8,1.31-5.35,1.72-8.16.32-1.27.39-2.56.71-3.83l26,15.29Z"/><path class="cls-5" d="M1671,1069.51a82.1,82.1,0,0,1-33.93,32.26,86.79,86.79,0,0,1-44.36,9.8,84.28,84.28,0,0,1-38.84-11.83l-66.56-39.08-10.5-6.23L1449,1038l-28-16.43-52.54-30.87L1340.17,974l-1-.56-27.27-16.13L1052.69,805c32-49.39,62.72-94.46,92.13-133.93,1.93-2.47,3.61-5,5.27-7.2l168.63,99.37,16,9.35,29.28,17,29.27,17.26,60.3,35.4,26.78,15.59,1.75,1.12,28.51,17,130.11,76.46A85.62,85.62,0,0,1,1671,1069.51Z"/><path class="cls-1" d="M1465,752.1l-29.27-17.27-29.27-17.27-6.5-3.95c7.63-160.28-13.12-276.14-76.43-293.64a51.06,51.06,0,0,0-9-1.24c-47.32-2.48-112.31,46.47-197,151.13-.55.74-1.38,1.73-1.93,2.48-6.34,7.66-13,15.83-19.33,24.26-6.09,7.93-12.45,16.11-18.57,24.56-30.24,40.71-62.88,87.75-97.41,141.13-5.34,8.49-11,17.22-16.57,26-4.21,6.48-8.43,13.22-12.66,20-1.13,2-2.53,4-3.66,6-8.16,13-16.32,26-24.51,39.47a25.09,25.09,0,0,1-2.25,3.49c-4.26,7.52-9,15-13.57,22.76-5.34,8.49-10.45,17.25-15.82,26.25-7.06,11.75-13.87,23.52-20.94,35.53-10.51,18.28-21.28,36.8-32.33,55.82s-21.88,38.57-33.26,58.87c-5.1,8.76-10,17.53-15.08,26.8q-1.69,3-3.41,6c-3.14,5.77-6.53,11.52-9.69,17.55-.56,1-1.15,2.26-1.72,3.26-2.85,5.27-5.7,10.54-8.82,15.79L761,1135.6a102,102,0,0,1-9,13.2,103.61,103.61,0,0,1-10.87,10.52h-.25c-1.61,1.2-3,2.42-4.83,3.61A78.51,78.51,0,0,1,711.48,1174a58.94,58.94,0,0,1-15.07,2,49.67,49.67,0,0,1-8.78.31,84.45,84.45,0,0,1-23.74-4.85,42.7,42.7,0,0,1-5-2.33,73.35,73.35,0,0,1-15.5-9.32,64.44,64.44,0,0,1-7.63-7.11,99.44,99.44,0,0,1-6.81-7.83c-.24-.27-.24-.27-.23-.53a22,22,0,0,1-3.32-5.59,73.72,73.72,0,0,1-11.82-40.08l0-.77a72.47,72.47,0,0,1,7.41-33.14,40.59,40.59,0,0,1,3.45-6.79.25.25,0,0,1,.27-.24,1.91,1.91,0,0,1,.57-1c1.15-2.26,2.56-4.51,4-6.76,3.7-6.51,7.63-12.75,11.32-19,2-3.25,3.69-6.51,5.67-9.76.27-.24.28-.5.55-.74,1.15-2.26,2.56-4.51,3.7-6.51,2-3.25,3.93-6.25,5.65-9.51l16.08-26.24L764.49,831.7c5.88-8.72,11.22-17.2,17.09-25.92,2-3,3.92-5.73,5.88-8.72,3.64-5.49,7.55-11.21,11.19-16.7,4.18-6,8.12-12.21,12.3-18.18a15.29,15.29,0,0,1,1.12-1.75c4.2-6.22,8.39-12.45,12.83-18.41,3.63-5.22,7.27-10.71,10.9-15.94,2.23-3.23,4.45-6.21,6.42-9.46,6.12-8.45,12-16.65,17.81-24.86L964.71,554.62c6.62-8.16,13.48-16,20.07-23.7,2.21-2.73,4.4-5.19,6.86-7.9,2.21-2.72,4.42-5.44,6.61-7.9,2.2-2.73,4.4-5.19,6.86-7.9,4.67-5.43,9.32-10.6,14-15.77v-.26c11.78-13.05,23-25.1,34.16-36.64,7.91-8.1,15.81-16.19,23.43-23.79,7.88-7.58,15.48-14.92,22.81-21.76,3.53-3.42,7.32-6.84,11.11-10.25,3.53-3.42,7.31-6.58,11.08-9.73C1202.22,319,1271,285.94,1327.34,288.89a116.68,116.68,0,0,1,49.07,13.41,126.76,126.76,0,0,1,28.45,23.15,82.89,82.89,0,0,1,6.34,7c4.12,4.86,7.73,9.95,11.57,15.31a281.59,281.59,0,0,1,14.85,26.82q4.53,9.53,8.24,19.78c1.37,3.43,2.48,6.84,3.84,10.52q3.32,10.62,6.58,22c1.91,7.83,3.82,15.67,5.48,23.5,1.64,8.08,3,16.4,4.37,24.73.55,4.41,1.1,8.57,1.9,13,1.1,8.57,1.94,17.13,2.76,26.2l0,.51c.83,8.81,1.64,17.88,2.18,27.2C1476.26,606.71,1472.74,678.74,1465,752.1Z"/></svg>