<svg xmlns="http://www.w3.org/2000/svg" viewBox="0 0 632.75 474.42"><defs><style>.cls-1{fill:#fff;}</style></defs><title>Cognite - Light - Vertical_1</title><g id="Layer_2" data-name="Layer 2"><g id="Layer_1-2" data-name="Layer 1"><g id="Group_6673" data-name="Group 6673"><path id="Path_1966" data-name="Path 1966" class="cls-1" d="M462.32,114.08V90a21,21,0,0,0-42,0v30.59c-12.1,2.78-26.08,5.57-40.07,8.36V20.4A20.86,20.86,0,0,0,359,0h-.1A20.63,20.63,0,0,0,338.34,20.4V139.15a7,7,0,0,0-3.73.93c-13,2.78-25.15,5.56-37.31,8.34V56.6a20.51,20.51,0,0,0-41,0V157.65c-14.91,2.8-28,5.57-41,7.42V117.78a20.52,20.52,0,0,0-41,0v52.86c-46.6,5.57-73.61,3.72-76.43-4.66-6.51-13.93,36.36-33.43,48.47-39.88v-.92h-.93c-12.11,4.63-64.31,26-57.78,44.5,6.51,20.42,86.67,26,253.52-14.83C480.92,120.53,545.23,114,551.76,127c4.66,11.12-29.84,32.46-63.38,47.3a3.34,3.34,0,0,0-.93,2.77c.93.93,1.85,1.86,2.8.93,12.1-4.66,75.49-31.52,72.68-53.79-2.78-14.83-36.34-19.47-100.65-10.2M174.5,211.7v15.55a20.3,20.3,0,0,0,40.59,0V207.12a369,369,0,0,1-40.59,4.59m81.93-11.48v56.54a20.3,20.3,0,0,0,40.59.79V191.88a348.61,348.61,0,0,1-40.59,8.35"/><path id="Path_1967" data-name="Path 1967" class="cls-1" d="M341.16,182.85h-2.8v39.73a21.07,21.07,0,0,0,42.1,0v-49c-12.16,2.78-25.25,5.54-39.3,9.25m79.13-18.46v24a20.84,20.84,0,0,0,21.41,20.27h.12a20.61,20.61,0,0,0,20.55-20.27V156.11q-18.24,4.13-42.12,8.29"/></g><path class="cls-1" d="M60.12,409.38a18.36,18.36,0,0,0-6.78-5.16,22.56,22.56,0,0,0-9.3-1.8,23.27,23.27,0,0,0-17.58,7.74,26.57,26.57,0,0,0-5.16,8.7,33.16,33.16,0,0,0,0,21.9,27.29,27.29,0,0,0,5.1,8.64A23.11,23.11,0,0,0,34,455.1a22,22,0,0,0,9.42,2,21.11,21.11,0,0,0,10.2-2.4A20.3,20.3,0,0,0,61,448l15.6,11.64a32.49,32.49,0,0,1-13.68,11.16,42.33,42.33,0,0,1-17,3.6,52.34,52.34,0,0,1-18.36-3.12A42,42,0,0,1,13,462.36a40.53,40.53,0,0,1-9.54-14.1,51.64,51.64,0,0,1,0-37A40.53,40.53,0,0,1,13,397.2a42,42,0,0,1,14.52-8.94,52.34,52.34,0,0,1,18.36-3.12,45,45,0,0,1,7.5.66A40.52,40.52,0,0,1,61,387.9a34.23,34.23,0,0,1,7.26,3.84,28.88,28.88,0,0,1,6.24,5.88Z"/><path class="cls-1" d="M97.2,429.78a48,48,0,0,1,3.42-18.48,40.53,40.53,0,0,1,9.54-14.1,42,42,0,0,1,14.52-8.94,55.58,55.58,0,0,1,36.72,0,42,42,0,0,1,14.52,8.94,40.53,40.53,0,0,1,9.54,14.1,51.64,51.64,0,0,1,0,37,40.53,40.53,0,0,1-9.54,14.1,42,42,0,0,1-14.52,8.94,55.58,55.58,0,0,1-36.72,0,42,42,0,0,1-14.52-8.94,40.53,40.53,0,0,1-9.54-14.1A48,48,0,0,1,97.2,429.78Zm19.44,0a31.16,31.16,0,0,0,1.86,11,25.15,25.15,0,0,0,5.34,8.64,24.37,24.37,0,0,0,8.34,5.7,29.93,29.93,0,0,0,21.72,0,24.37,24.37,0,0,0,8.34-5.7,25.15,25.15,0,0,0,5.34-8.64,33.16,33.16,0,0,0,0-21.9,25,25,0,0,0-5.34-8.7,24.37,24.37,0,0,0-8.34-5.7,29.93,29.93,0,0,0-21.72,0,24.37,24.37,0,0,0-8.34,5.7,25,25,0,0,0-5.34,8.7A31.3,31.3,0,0,0,116.64,429.78Z"/><path class="cls-1" d="M293.52,466.26a67.77,67.77,0,0,1-17.28,6.24,87.75,87.75,0,0,1-18.36,1.92,52.34,52.34,0,0,1-18.36-3.12A42,42,0,0,1,225,462.36a40.53,40.53,0,0,1-9.54-14.1,51.64,51.64,0,0,1,0-37A40.53,40.53,0,0,1,225,397.2a42,42,0,0,1,14.52-8.94,52.34,52.34,0,0,1,18.36-3.12,68,68,0,0,1,18.78,2.46,36.77,36.77,0,0,1,15.06,8.46l-13.2,14.4a26.3,26.3,0,0,0-8.64-6,30.79,30.79,0,0,0-12-2,27.8,27.8,0,0,0-10.86,2,24.37,24.37,0,0,0-8.34,5.7,25,25,0,0,0-5.34,8.7,33.16,33.16,0,0,0,0,21.9,25.15,25.15,0,0,0,5.34,8.64,24.37,24.37,0,0,0,8.34,5.7,27.8,27.8,0,0,0,10.86,2,35.78,35.78,0,0,0,10.56-1.38,39.85,39.85,0,0,0,7.08-2.82v-13.8H260.28V421.86h33.24Z"/><path class="cls-1" d="M325,387.3H350.4l36.12,59h.24v-59h18.72v85H381l-37.08-60.48h-.24v60.48H325Z"/><path class="cls-1" d="M437.52,387.3h18.72v85H437.52Z"/><path class="cls-1" d="M504.72,403.86H480.48V387.3h67.2v16.56H523.44v68.4H504.72Z"/><path class="cls-1" d="M572.87,387.3h57.72v17.28h-39v15.84h36.84V437.7H591.59V455h41.16v17.28H572.87Z"/></g></g></svg>